Coordinates
version=1
nRows=27
nColumns=38
inDegrees=no

Units are S.I. units (second, meters, Newtons, ...)
If the header above contains a line with 'inDegrees', this indicates whether rotational values are in degrees (yes) or radians (no).

endheader
time	pelvis_tilt	pelvis_list	pelvis_rotation	pelvis_tx	pelvis_ty	pelvis_tz	hip_flexion_r	hip_adduction_r	hip_rotation_r	knee_angle_r	ankle_angle_r	subtalar_angle_r	mtp_angle_r	hip_flexion_l	hip_adduction_l	hip_rotation_l	knee_angle_l	ankle_angle_l	subtalar_angle_l	mtp_angle_l	lumbar_extension	lumbar_bending	lumbar_rotation	arm_flex_r	arm_add_r	arm_rot_r	elbow_flex_r	pro_sup_r	wrist_flex_r	wrist_dev_r	arm_flex_l	arm_add_l	arm_rot_l	elbow_flex_l	pro_sup_l	wrist_flex_l	wrist_dev_l
1.86	-1.52455	1.53434	-0.592154	0.566357	-0.572165	0.937609	0.321958	-0.138475	-0.698132	0.478818	-0.00842371	0	0	-0.223251	-0.107689	-0.541886	0.406917	0.183163	0	0	0.00414834	0.0773946	-0.178006	-0.260295	-0.120936	-0.44529	0.414316	1.40919	0	0	-0.10438	-0.152204	0.112894	0.401277	1.5708	0	0
1.87	-1.56612	1.533	-0.562092	0.559769	-0.575209	0.938461	0.319568	-0.132916	-0.698132	0.486391	-0.00229288	0	0	-0.222963	-0.114919	-0.543166	0.422367	0.169725	0	0	0.00810888	0.0844338	-0.179324	-0.258878	-0.123533	-0.449194	0.402806	1.40844	0	0	-0.108639	-0.150654	0.102841	0.412387	1.5708	0	0
1.88	-1.59458	1.53707	-0.551389	0.552488	-0.578368	0.939385	0.313854	-0.132209	-0.698132	0.484827	0.014286	0	0	-0.227371	-0.123815	-0.55869	0.434164	0.16276	0	0	0.0150046	0.0868627	-0.17762	-0.256901	-0.126418	-0.453062	0.392387	1.40964	0	0	-0.115865	-0.148703	0.0962146	0.424923	1.5708	0	0
1.89	-1.65924	1.53837	-0.499666	0.545609	-0.581169	0.940069	0.310854	-0.126537	-0.698132	0.485589	0.0199451	0	0	-0.225876	-0.129388	-0.561775	0.44851	0.148096	0	0	0.0210754	0.0908721	-0.177639	-0.256864	-0.12808	-0.454964	0.38442	1.41091	0	0	-0.120768	-0.149332	0.0919148	0.436445	1.5708	0	0
1.9	-1.75122	1.53998	-0.420772	0.538579	-0.583836	0.940633	0.306928	-0.118843	-0.698132	0.481493	0.025664	0	0	-0.222605	-0.135405	-0.564165	0.464424	0.133058	0	0	0.0277775	0.0943957	-0.178284	-0.256179	-0.129376	-0.457786	0.376154	1.41357	0	0	-0.126802	-0.150659	0.0873517	0.450248	1.5708	0	0
1.91	-1.88924	1.54077	-0.295756	0.531495	-0.586531	0.941136	0.301687	-0.108084	-0.698132	0.471743	0.0306063	0	0	-0.217065	-0.143024	-0.565253	0.482973	0.117734	0	0	0.0355993	0.0977828	-0.178548	-0.250954	-0.129373	-0.483684	0.358624	1.45504	0	0	-0.165951	-0.166816	0.292763	0.546057	0.918051	0	0
1.92	-1.97917	1.54127	-0.219021	0.524505	-0.588893	0.941759	0.29352	-0.0961328	-0.698132	0.458192	0.0351991	0	0	-0.212148	-0.150362	-0.565379	0.502441	0.102031	0	0	0.040807	0.101083	-0.179592	-0.250089	-0.130703	-0.483061	0.353091	1.456	0	0	-0.169725	-0.169431	0.289568	0.555387	0.917261	0	0
1.93	-2.04667	1.54089	-0.163595	0.517586	-0.590984	0.942459	0.283534	-0.0823476	-0.698132	0.441129	0.0385494	0	0	-0.205621	-0.158698	-0.560365	0.524818	0.086568	0	0	0.0439502	0.10462	-0.182037	-0.247625	-0.131385	-0.482918	0.347659	1.45766	0	0	-0.172466	-0.172659	0.286498	0.56519	0.917597	0	0
1.94	-2.13735	1.54046	-0.0852894	0.511269	-0.592269	0.943309	0.275577	-0.0684417	-0.698132	0.424211	0.036886	0	0	-0.194641	-0.165338	-0.541993	0.550385	0.0658239	0	0	0.0446877	0.108671	-0.184974	-0.242965	-0.131968	-0.482947	0.342752	1.45976	0	0	-0.172899	-0.175709	0.284438	0.57356	0.916478	0	0
1.95	-2.16638	1.54088	-0.0673616	0.504337	-0.594523	0.944068	0.263433	-0.0556988	-0.697361	0.406067	0.043274	0	0	-0.187544	-0.174129	-0.53948	0.574923	0.0561768	0	0	0.0481739	0.109393	-0.188176	-0.239881	-0.131796	-0.483685	0.3369	1.46181	0	0	-0.175162	-0.178888	0.282046	0.579791	0.913249	0	0
1.96	-2.23265	1.54201	-0.0138693	0.497868	-0.596007	0.944773	0.255153	-0.0434817	-0.685196	0.390618	0.0459816	0	0	-0.17537	-0.180169	-0.524713	0.603229	0.0402769	0	0	0.0495956	0.110239	-0.19056	-0.235583	-0.131401	-0.48483	0.333152	1.46392	0	0	-0.175281	-0.183001	0.279353	0.586241	0.914963	0	0
1.97	-2.33351	1.54366	0.0737925	0.491612	-0.597302	0.945314	0.248903	-0.0330477	-0.672211	0.377734	0.049089	0	0	-0.159503	-0.185505	-0.505931	0.635386	0.0244672	0	0	0.0512732	0.110208	-0.192565	-0.23134	-0.130641	-0.486013	0.330949	1.46597	0	0	-0.17513	-0.187096	0.276738	0.592007	0.919812	0	0
1.98	-2.39637	1.54525	0.124538	0.485042	-0.598636	0.945749	0.240326	-0.0245209	-0.670259	0.366913	0.058206	0	0	-0.144891	-0.193946	-0.497034	0.669737	0.0196714	0	0	0.0539179	0.110936	-0.189821	-0.234542	-0.126911	-0.4961	0.335101	1.46785	0	0	-0.171544	-0.192026	0.282927	0.592464	0.923274	0	0
1.99	-2.52632	1.54541	0.241408	0.479076	-0.59935	0.946032	0.236206	-0.0157389	-0.659826	0.358321	0.0607262	0	0	-0.123187	-0.200233	-0.473398	0.708448	0.00710862	0	0	0.0551871	0.111658	-0.192196	-0.22991	-0.12566	-0.498474	0.336056	1.46995	0	0	-0.170487	-0.196113	0.284171	0.597268	0.921238	0	0
2	-2.66963	1.54457	0.371066	0.473396	-0.5999	0.946169	0.23325	-0.00712816	-0.649793	0.350888	0.0629696	0	0	-0.0989269	-0.206381	-0.44831	0.74881	-0.00618781	0	0	0.05629	0.112862	-0.193946	-0.224872	-0.124412	-0.497998	0.337414	1.47044	0	0	-0.168706	-0.200754	0.283845	0.602424	0.91951	0	0
2.01	-2.78561	1.54251	0.472462	0.467821	-0.600179	0.946221	0.230443	0.00236911	-0.63959	0.343555	0.064866	0	0	-0.0737274	-0.212366	-0.422447	0.788829	-0.0217116	0	0	0.0563356	0.115154	-0.194715	-0.219608	-0.123311	-0.495283	0.340032	1.46871	0	0	-0.1659	-0.205188	0.282035	0.606582	0.920911	0	0
2.02	-2.86835	1.53964	0.539594	0.462451	-0.600167	0.946263	0.22709	0.0131869	-0.628905	0.334594	0.065688	0	0	-0.0480207	-0.217936	-0.396282	0.827846	-0.0352827	0	0	0.0552625	0.11845	-0.194593	-0.214384	-0.122616	-0.490027	0.344203	1.46583	0	0	-0.162643	-0.208541	0.279868	0.609793	0.919977	0	0
2.03	-2.93969	1.53649	0.594189	0.457227	-0.599944	0.946265	0.22349	0.0245789	-0.617737	0.324312	0.065913	0	0	-0.0217897	-0.221837	-0.369828	0.86567	-0.0396994	0	0	0.0539909	0.12194	-0.193446	-0.209377	-0.122292	-0.48216	0.349277	1.46219	0	0	-0.158942	-0.211725	0.277967	0.612236	0.917333	0	0
2.04	-3.05765	1.53393	0.693648	0.452839	-0.599552	0.946272	0.222233	0.0340251	-0.598066	0.313776	0.0618164	0	0	0.00853116	-0.218028	-0.333754	0.902945	-0.0444586	0	0	0.0520791	0.125123	-0.19081	-0.202159	-0.124194	-0.471695	0.354445	1.45801	0	0	-0.153366	-0.213629	0.277286	0.614094	0.91621	0	0
2.05	-3.13334	1.53152	0.750383	0.447516	-0.598967	0.946152	0.217976	0.0445486	-0.584202	0.301905	0.0623343	0	0	0.0346529	-0.217477	-0.310549	0.936336	-0.0308219	0	0	0.0514488	0.127251	-0.189521	-0.200801	-0.12574	-0.436826	0.366813	1.41765	0	0	-0.122349	-0.20264	0.0853418	0.545578	1.5708	0	0
2.06	3.06776	1.52872	0.81197	0.442975	-0.599038	0.946253	0.21435	0.0541964	-0.56801	0.290393	0.0613626	0	0	0.0605104	-0.213694	-0.286921	0.964792	-0.0149237	0	0	0.0516559	0.128998	-0.185778	-0.196427	-0.127536	-0.415951	0.372149	1.39485	0	0	-0.145407	-0.215853	0.255004	0.604906	0.978271	0	0
2.07	3.01446	1.5274	0.845132	0.437874	-0.598632	0.946427	0.209025	0.0627974	-0.553776	0.279982	0.0616755	0	0	0.0844914	-0.209955	-0.266377	0.989641	-0.00034316	0	0	0.0486397	0.127502	-0.188409	-0.183765	-0.127921	-0.402418	0.367881	1.39569	0	0	-0.147122	-0.22013	0.246353	0.608933	0.978129	0	0
2.08	2.94595	1.52599	0.89302	0.43295	-0.598174	0.946552	0.204214	0.0706864	-0.537232	0.270297	0.0619812	0	0	0.108851	-0.204523	-0.244295	1.01101	0.0142667	0	0	0.0473663	0.127372	-0.185449	-0.17728	-0.127287	-0.395152	0.369	1.39545	0	0	-0.14523	-0.223102	0.243045	0.608846	0.978473	0	0
2.09	2.88626	1.52443	0.931781	0.427996	-0.597722	0.946698	0.199054	0.0783723	-0.520174	0.261041	0.0620586	0	0	0.132422	-0.198524	-0.222091	1.02812	0.0260382	0	0	0.0462112	0.127448	-0.182272	-0.171936	-0.126299	-0.389673	0.372115	1.39504	0	0	-0.143719	-0.225819	0.241189	0.608337	0.978326	0	0
2.1	2.82469	1.52298	0.972274	0.422814	-0.597049	0.946761	0.193358	0.0856354	-0.502637	0.251481	0.06245	0	0	0.15538	-0.192161	-0.200028	1.04148	0.034814	0	0	0.0458745	0.12905	-0.173024	-0.173018	-0.123935	-0.392297	0.382576	1.3944	0	0	-0.137317	-0.228624	0.246298	0.603953	0.976769	0	0
2.11	2.77454	1.52108	1.0002	0.417844	-0.596404	0.946893	0.187432	0.093426	-0.483835	0.241463	0.0622131	0	0	0.17775	-0.18624	-0.178711	1.05132	0.0410418	0	0	0.0448034	0.129206	-0.168334	-0.169429	-0.122428	-0.388811	0.388914	1.39425	0	0	-0.136085	-0.231709	0.246285	0.603799	0.97356	0	0
2.12	2.76122	1.51813	0.990911	0.413811	-0.596309	0.946966	0.182541	0.105289	-0.458706	0.23146	0.0587527	0	0	0.200485	-0.164338	-0.156176	1.06031	0.0362197	0	0	0.0430399	0.132894	-0.163732	-0.166269	-0.122791	-0.382427	0.395951	1.3923	0	0	-0.135219	-0.233764	0.247942	0.605867	0.965768	0	0
